<?xml version="1.0" encoding="UTF-8"?>
<!DOCTYPE svg PUBLIC "-//W3C//DTD SVG 1.1//EN" "http://www.w3.org/Graphics/SVG/1.1/DTD/svg11.dtd">
<!-- Creator: CorelDRAW 2018 (64-Bit) -->
<svg xmlns="http://www.w3.org/2000/svg" xml:space="preserve" width="28mm" height="28mm" version="1.1" style="shape-rendering:geometricPrecision; text-rendering:geometricPrecision; image-rendering:optimizeQuality; fill-rule:evenodd; clip-rule:evenodd"
viewBox="0 0 2800 2800"
 xmlns:xlink="http://www.w3.org/1999/xlink">
 <defs>
  <style type="text/css">
   <![CDATA[
    .fil0 {fill:#1F1B20}
   ]]>
  </style>
 </defs>
 <g id="Katman_x0020_1">
  <metadata id="CorelCorpID_0Corel-Layer"/>
  <path class="fil0" d="M45.34 2754.66l2709.32 0 0 -2709.32 -1609.92 0 0.08 1182.98 320.67 -346.68c103.3,-124.55 79.91,-86.27 408.66,-86.87 68.31,-0.13 98.39,-12.72 133.59,29.5 11.93,62.34 -76.29,134.97 -114.49,171.66 -44.8,43.04 -91.45,108.1 -134.71,153.23l-271.05 307.93 545.85 587.94c32.52,36.14 56.92,52.94 30.98,111.15 -64.57,19.35 -258.64,9 -342.59,9.23 -79.5,0.22 -103.39,12.97 -144.88,-36.41l-339.37 -371.78c-19.01,-18.37 -26.19,-22.34 -42.57,-42.02 -27.22,-32.69 -19.38,-31.92 -50.27,-48.29l0.07 444.21c-3.56,34.79 -4.64,30.2 -24.89,43.48 -28.06,17.93 -343.28,17.7 -370.98,-0.24 -40.25,-26.5 -24.6,-151.79 -24.6,-237.9l0 -1871.12 -678.9 0 0 2709.32z"/>
 </g>
</svg>
